<svg xmlns="http://www.w3.org/2000/svg" aria-hidden="true" style="position:absolute;width:0;height:0;overflow:hidden"><defs><symbol id="icon-facebook" viewBox="0 0 32 32"><path d="M17.794 6.85c0-1.287 1.15-1.75 2.438-1.75s2.663.4 2.663.4L23.72.6S21.97 0 17.795 0c-2.563 0-4.05.975-5.137 2.413-1.025 1.362-1.063 3.55-1.063 4.963v3.213H8.282v4.787h3.313v16.625h6.2V15.376h4.912l.363-4.787h-5.275V6.852z"/></symbol><symbol id="icon-telegram" viewBox="0 0 32 32"><path d="m25.6 5.867-21.733 8.4C2.4 14.8 2.4 15.734 3.6 16l5.467 1.733 2.133 6.4c.267.667.133.933.8.933.533 0 .8-.267 1.067-.533l2.667-2.667 5.6 4.133c1.067.533 1.733.267 2-.933l3.733-17.467c.4-1.467-.533-2.267-1.467-1.733zm-2.8 4-10.4 9.467-.4 4.4-2.133-6.4 12.267-7.733c.533-.4 1.067-.133.667.267z"/></symbol><symbol id="icon-github" viewBox="0 0 32 32"><path d="M16 2.667h-.05C8.586 2.667 2.617 8.637 2.617 16c0 5.875 3.8 10.863 9.076 12.639l.094.027c.667.107.88-.307.88-.667v-2.253c-3.693.8-4.48-1.747-4.48-1.747a3.601 3.601 0 0 0-1.506-1.991l-.014-.009c-1.213-.827.093-.8.093-.8.87.116 1.603.616 2.033 1.321l.007.012a2.87 2.87 0 0 0 3.895 1.099l-.015.007a2.881 2.881 0 0 1 .84-1.787c-2.853-.293-6.027-1.44-6.027-6.52a5.141 5.141 0 0 1 1.337-3.617l-.004.004a4.684 4.684 0 0 1-.273-1.592c0-.698.15-1.361.419-1.958l-.012.03s1.12-.36 3.667 1.333c1-.28 2.148-.44 3.333-.44s2.334.161 3.424.461l-.09-.021c2.547-1.72 3.667-1.333 3.667-1.333.257.567.407 1.23.407 1.928 0 .571-.1 1.118-.284 1.625l.011-.033a5.14 5.14 0 0 1 1.335 3.464l-.002.157v-.008c0 5.093-3.12 6.213-6.093 6.547a3.177 3.177 0 0 1 .92 2.476l.001-.01v3.653c0 .36.213.787.893.667 5.37-1.804 9.17-6.792 9.17-12.667 0-7.358-5.96-13.324-13.316-13.333h-.001z"/></symbol><symbol id="icon-chevron-right" viewBox="0 0 32 32"><path d="M16 2.667h-.05C8.586 2.667 2.617 8.637 2.617 16c0 5.875 3.8 10.863 9.076 12.639l.094.027c.667.107.88-.307.88-.667v-2.253c-3.693.8-4.48-1.747-4.48-1.747a3.601 3.601 0 0 0-1.506-1.991l-.014-.009c-1.213-.827.093-.8.093-.8.87.116 1.603.616 2.033 1.321l.007.012a2.87 2.87 0 0 0 3.895 1.099l-.015.007a2.881 2.881 0 0 1 .84-1.787c-2.853-.293-6.027-1.44-6.027-6.52a5.141 5.141 0 0 1 1.337-3.617l-.004.004a4.684 4.684 0 0 1-.273-1.592c0-.698.15-1.361.419-1.958l-.012.03s1.12-.36 3.667 1.333c1-.28 2.148-.44 3.333-.44s2.334.161 3.424.461l-.09-.021c2.547-1.72 3.667-1.333 3.667-1.333.257.567.407 1.23.407 1.928 0 .571-.1 1.118-.284 1.625l.011-.033a5.14 5.14 0 0 1 1.335 3.464l-.002.157v-.008c0 5.093-3.12 6.213-6.093 6.547a3.177 3.177 0 0 1 .92 2.476l.001-.01v3.653c0 .36.213.787.893.667 5.37-1.804 9.17-6.792 9.17-12.667 0-7.358-5.96-13.324-13.316-13.333h-.001z"/></symbol><symbol id="icon-home" viewBox="0 0 32 32"><path d="M16 4 4 13.998V28h7.998v-8H20v8h7.998V13.998z"/></symbol><symbol id="icon-arrow-right" viewBox="0 0 32 32"><path d="M16 4 4 13.998V28h7.998v-8H20v8h7.998V13.998z"/></symbol><symbol id="icon-burger" viewBox="0 0 46 32"><path fill="none" stroke="#d41443" stroke-width="2.286" d="M0 2.286h45.714M0 16h45.714M0 29.714h45.714" style="stroke:var(--color1, #d41443)"/></symbol><symbol id="icon-close" viewBox="0 0 32 32"><path d="M6.1 6.1c.362-.362.862-.586 1.414-.586s1.052.224 1.414.586L16 13.172 23.072 6.1a2 2 0 0 1 2.827 2.829l.001-.001L18.828 16l7.072 7.072a2 2 0 0 1-2.829 2.827l.001.001L16 18.828 8.928 25.9a2 2 0 0 1-2.827-2.829l-.001.001L13.172 16 6.1 8.928c-.362-.362-.586-.862-.586-1.414S5.738 6.462 6.1 6.1z"/></symbol><symbol id="icon-greater-than" viewBox="0 0 22 32"><path fill="none" stroke="#d41443" stroke-linecap="round" stroke-linejoin="round" stroke-width="6.4" d="M3.47 3.2 17.17 16 3.47 28.8" style="stroke:var(--color1, #d41443)"/></symbol><symbol id="contacts-section-arrow-2" viewBox="0 0 22 32"><path stroke-linecap="round" stroke-linejoin="round" stroke-width="6.4" d="m4.545 3.2 13.7 12.8-13.7 12.8"/></symbol><symbol id="contacts-section-arrow-1" viewBox="0 0 19 32"><path stroke-linecap="round" stroke-linejoin="round" stroke-width="6.4" d="M3.2 3.2 14.753 16 3.2 28.8"/></symbol><symbol id="icon-ellipse-white" viewBox="0 0 32 32"><path fill="#fff" d="M0 16c0 8.837 7.163 16 16 16s16-7.163 16-16S24.837 0 16 0 0 7.163 0 16z" style="fill:var(--color1, #fff)"/></symbol><symbol id="icon-up-arrow" viewBox="0 0 32 32"><path d="M26.132 24.713c1.34 1.34 3.522 1.34 4.862 0s1.34-3.522 0-4.862L18.431 7.288a3.443 3.443 0 0 0-4.862 0L1.006 19.851c-1.34 1.34-1.34 3.522 0 4.862s3.522 1.34 4.862 0L16 14.581l10.132 10.132z"/></symbol></defs></svg>